<?xml version="1.0" encoding="iso-8859-1"?>
<!-- Generator: Adobe Illustrator 18.0.0, SVG Export Plug-In . SVG Version: 6.00 Build 0)  -->
<!DOCTYPE svg PUBLIC "-//W3C//DTD SVG 1.1//EN" "http://www.w3.org/Graphics/SVG/1.1/DTD/svg11.dtd">
<svg version="1.1" id="Capa_1" xmlns="http://www.w3.org/2000/svg" xmlns:xlink="http://www.w3.org/1999/xlink" x="0px" y="0px"
	 viewBox="0 0 29.012 28.004" style="enable-background:new 0 0 29.012 28.004;" xml:space="preserve">
<g id="_x39__19_">
	<g>
		<path style="fill-rule:evenodd;clip-rule:evenodd;" d="M28.012,26.004h-14c-0.552,0-1,0.446-1,0.999c0,0.553,0.448,1.001,1,1.001
			h14c0.552,0,1-0.448,1-1.001C29.012,26.45,28.565,26.004,28.012,26.004z M15.699,9.701c0.392-0.394,0.392-1.032,0-1.425
			L8.757,0.287c-0.209-0.21-0.487-0.299-0.76-0.285c-0.274-0.014-0.551,0.075-0.76,0.285L0.294,8.275
			c-0.392,0.394-0.392,1.032,0,1.425s1.028,0.394,1.42,0l5.299-6.097v24.4h2V3.64l5.267,6.061
			C14.671,10.094,15.307,10.094,15.699,9.701z M16.012,4.004h12c0.552,0,1-0.475,1-1.028c0-0.553-0.448-1.001-1-1.001h-12
			c-0.552,0-1,0.448-1,1.001C15.012,3.529,15.46,4.004,16.012,4.004z M28.012,19.995h-14c-0.552,0-1,0.448-1,1.001
			c0,0.553,0.448,1.001,1,1.001h14c0.552,0,1-0.448,1-1.001C29.012,20.443,28.565,19.995,28.012,19.995z M28.012,13.988h-14
			c-0.552,0-1,0.448-1,1.001c0,0.553,0.448,1.001,1,1.001h14c0.552,0,1-0.448,1-1.001C29.012,14.436,28.565,13.988,28.012,13.988z
			 M28.012,7.981l-8,0.022c-0.552,0-1,0.426-1,0.979c0,0.553,0.448,1.021,1,1.021l8-0.02c0.552,0,1-0.448,1-1.001
			C29.012,8.429,28.565,7.981,28.012,7.981z"/>
	</g>
</g>
<g>
</g>
<g>
</g>
<g>
</g>
<g>
</g>
<g>
</g>
<g>
</g>
<g>
</g>
<g>
</g>
<g>
</g>
<g>
</g>
<g>
</g>
<g>
</g>
<g>
</g>
<g>
</g>
<g>
</g>
</svg>
